<?xml version="1.0" standalone="yes"?>
<!-- SVG graphic -->
<svg xmlns='http://www.w3.org/2000/svg' xmlns:xlink='http://www.w3.org/1999/xlink'
 version="1.1">
<rect x="0" y="0" width="6" height="200" stroke="black" stroke-width="1" fill="blue" tooltip="enable"><title>(0,5895)</title></rect><rect x="6" y="61.0348" width="6" height="138.965" stroke="black" stroke-width="1" fill="blue" tooltip="enable"><title>(0.0395933,4096)</title></rect><rect x="12" y="79.2875" width="6" height="120.712" stroke="black" stroke-width="1" fill="blue" tooltip="enable"><title>(0.0791866,3558)</title></rect><rect x="18" y="92.112" width="6" height="107.888" stroke="black" stroke-width="1" fill="blue" tooltip="enable"><title>(0.11878,3180)</title></rect><rect x="24" y="103.308" width="6" height="96.6921" stroke="black" stroke-width="1" fill="blue" tooltip="enable"><title>(0.158373,2850)</title></rect><rect x="30" y="111.111" width="6" height="88.8889" stroke="black" stroke-width="1" fill="blue" tooltip="enable"><title>(0.197966,2620)</title></rect><rect x="36" y="124.648" width="6" height="75.352" stroke="black" stroke-width="1" fill="blue" tooltip="enable"><title>(0.23756,2221)</title></rect><rect x="42" y="126.412" width="6" height="73.5878" stroke="black" stroke-width="1" fill="blue" tooltip="enable"><title>(0.277153,2169)</title></rect><rect x="48" y="137.337" width="6" height="62.6633" stroke="black" stroke-width="1" fill="blue" tooltip="enable"><title>(0.316746,1847)</title></rect><rect x="54" y="145.683" width="6" height="54.3172" stroke="black" stroke-width="1" fill="blue" tooltip="enable"><title>(0.35634,1601)</title></rect><rect x="60" y="149.143" width="6" height="50.8567" stroke="black" stroke-width="1" fill="blue" tooltip="enable"><title>(0.395933,1499)</title></rect><rect x="66" y="154.097" width="6" height="45.9033" stroke="black" stroke-width="1" fill="blue" tooltip="enable"><title>(0.435526,1353)</title></rect><rect x="72" y="160.95" width="6" height="39.05" stroke="black" stroke-width="1" fill="blue" tooltip="enable"><title>(0.47512,1151)</title></rect><rect x="78" y="163.155" width="6" height="36.8448" stroke="black" stroke-width="1" fill="blue" tooltip="enable"><title>(0.514713,1086)</title></rect><rect x="84" y="166.412" width="6" height="33.5878" stroke="black" stroke-width="1" fill="blue" tooltip="enable"><title>(0.554306,990)</title></rect><rect x="90" y="168.584" width="6" height="31.4165" stroke="black" stroke-width="1" fill="blue" tooltip="enable"><title>(0.593899,926)</title></rect><rect x="96" y="172.214" width="6" height="27.7863" stroke="black" stroke-width="1" fill="blue" tooltip="enable"><title>(0.633493,819)</title></rect><rect x="102" y="176.794" width="6" height="23.2061" stroke="black" stroke-width="1" fill="blue" tooltip="enable"><title>(0.673086,684)</title></rect><rect x="108" y="177.812" width="6" height="22.1883" stroke="black" stroke-width="1" fill="blue" tooltip="enable"><title>(0.712679,654)</title></rect><rect x="114" y="177.744" width="6" height="22.2561" stroke="black" stroke-width="1" fill="blue" tooltip="enable"><title>(0.752273,656)</title></rect><rect x="120" y="180.933" width="6" height="19.067" stroke="black" stroke-width="1" fill="blue" tooltip="enable"><title>(0.791866,562)</title></rect><rect x="126" y="183.749" width="6" height="16.2511" stroke="black" stroke-width="1" fill="blue" tooltip="enable"><title>(0.831459,479)</title></rect><rect x="132" y="183.24" width="6" height="16.76" stroke="black" stroke-width="1" fill="blue" tooltip="enable"><title>(0.871052,494)</title></rect><rect x="138" y="185.31" width="6" height="14.6904" stroke="black" stroke-width="1" fill="blue" tooltip="enable"><title>(0.910646,433)</title></rect><rect x="144" y="187.345" width="6" height="12.6548" stroke="black" stroke-width="1" fill="blue" tooltip="enable"><title>(0.950239,373)</title></rect><rect x="150" y="186.429" width="6" height="13.5708" stroke="black" stroke-width="1" fill="blue" tooltip="enable"><title>(0.989832,400)</title></rect><rect x="156" y="187.956" width="6" height="12.0441" stroke="black" stroke-width="1" fill="blue" tooltip="enable"><title>(1.02943,355)</title></rect><rect x="162" y="188.295" width="6" height="11.7048" stroke="black" stroke-width="1" fill="blue" tooltip="enable"><title>(1.06902,345)</title></rect><rect x="168" y="189.89" width="6" height="10.1103" stroke="black" stroke-width="1" fill="blue" tooltip="enable"><title>(1.10861,298)</title></rect><rect x="174" y="190.059" width="6" height="9.94063" stroke="black" stroke-width="1" fill="blue" tooltip="enable"><title>(1.14821,293)</title></rect><rect x="180" y="191.45" width="6" height="8.54962" stroke="black" stroke-width="1" fill="blue" tooltip="enable"><title>(1.1878,252)</title></rect><rect x="186" y="190.534" width="6" height="9.46565" stroke="black" stroke-width="1" fill="blue" tooltip="enable"><title>(1.22739,279)</title></rect><rect x="192" y="192.672" width="6" height="7.32824" stroke="black" stroke-width="1" fill="blue" tooltip="enable"><title>(1.26699,216)</title></rect><rect x="198" y="192.909" width="6" height="7.09075" stroke="black" stroke-width="1" fill="blue" tooltip="enable"><title>(1.30658,209)</title></rect><rect x="204" y="193.418" width="6" height="6.58185" stroke="black" stroke-width="1" fill="blue" tooltip="enable"><title>(1.34617,194)</title></rect><rect x="210" y="194.64" width="6" height="5.36048" stroke="black" stroke-width="1" fill="blue" tooltip="enable"><title>(1.38577,158)</title></rect><rect x="216" y="194.538" width="6" height="5.46226" stroke="black" stroke-width="1" fill="blue" tooltip="enable"><title>(1.42536,161)</title></rect><rect x="222" y="194.266" width="6" height="5.73367" stroke="black" stroke-width="1" fill="blue" tooltip="enable"><title>(1.46495,169)</title></rect><rect x="228" y="195.182" width="6" height="4.81764" stroke="black" stroke-width="1" fill="blue" tooltip="enable"><title>(1.50455,142)</title></rect><rect x="234" y="195.793" width="6" height="4.20695" stroke="black" stroke-width="1" fill="blue" tooltip="enable"><title>(1.54414,124)</title></rect><rect x="240" y="195.556" width="6" height="4.44444" stroke="black" stroke-width="1" fill="blue" tooltip="enable"><title>(1.58373,131)</title></rect><rect x="246" y="195.929" width="6" height="4.07125" stroke="black" stroke-width="1" fill="blue" tooltip="enable"><title>(1.62332,120)</title></rect><rect x="252" y="196.031" width="6" height="3.96947" stroke="black" stroke-width="1" fill="blue" tooltip="enable"><title>(1.66292,117)</title></rect><rect x="258" y="196.539" width="6" height="3.46056" stroke="black" stroke-width="1" fill="blue" tooltip="enable"><title>(1.70251,102)</title></rect><rect x="264" y="197.489" width="6" height="2.5106" stroke="black" stroke-width="1" fill="blue" tooltip="enable"><title>(1.7421,74)</title></rect><rect x="270" y="197.252" width="6" height="2.74809" stroke="black" stroke-width="1" fill="blue" tooltip="enable"><title>(1.7817,81)</title></rect><rect x="276" y="197.252" width="6" height="2.74809" stroke="black" stroke-width="1" fill="blue" tooltip="enable"><title>(1.82129,81)</title></rect><rect x="282" y="197.422" width="6" height="2.57846" stroke="black" stroke-width="1" fill="blue" tooltip="enable"><title>(1.86088,76)</title></rect><rect x="288" y="197.659" width="6" height="2.34097" stroke="black" stroke-width="1" fill="blue" tooltip="enable"><title>(1.90048,69)</title></rect><rect x="294" y="197.489" width="6" height="2.5106" stroke="black" stroke-width="1" fill="blue" tooltip="enable"><title>(1.94007,74)</title></rect><rect x="300" y="197.388" width="6" height="2.61238" stroke="black" stroke-width="1" fill="blue" tooltip="enable"><title>(1.97966,77)</title></rect><rect x="306" y="198.134" width="6" height="1.86599" stroke="black" stroke-width="1" fill="blue" tooltip="enable"><title>(2.01926,55)</title></rect><rect x="312" y="198.405" width="6" height="1.59457" stroke="black" stroke-width="1" fill="blue" tooltip="enable"><title>(2.05885,47)</title></rect><rect x="318" y="198.304" width="6" height="1.69635" stroke="black" stroke-width="1" fill="blue" tooltip="enable"><title>(2.09844,50)</title></rect><rect x="324" y="198.338" width="6" height="1.66243" stroke="black" stroke-width="1" fill="blue" tooltip="enable"><title>(2.13804,49)</title></rect><rect x="330" y="198.575" width="6" height="1.42494" stroke="black" stroke-width="1" fill="blue" tooltip="enable"><title>(2.17763,42)</title></rect><rect x="336" y="198.236" width="6" height="1.76421" stroke="black" stroke-width="1" fill="blue" tooltip="enable"><title>(2.21722,52)</title></rect><rect x="342" y="198.643" width="6" height="1.35708" stroke="black" stroke-width="1" fill="blue" tooltip="enable"><title>(2.25682,40)</title></rect><rect x="348" y="199.22" width="6" height="0.780322" stroke="black" stroke-width="1" fill="blue" tooltip="enable"><title>(2.29641,23)</title></rect><rect x="354" y="198.948" width="6" height="1.05174" stroke="black" stroke-width="1" fill="blue" tooltip="enable"><title>(2.336,31)</title></rect><rect x="360" y="198.711" width="6" height="1.28923" stroke="black" stroke-width="1" fill="blue" tooltip="enable"><title>(2.3756,38)</title></rect><rect x="366" y="199.084" width="6" height="0.916031" stroke="black" stroke-width="1" fill="blue" tooltip="enable"><title>(2.41519,27)</title></rect><rect x="372" y="198.914" width="6" height="1.08567" stroke="black" stroke-width="1" fill="blue" tooltip="enable"><title>(2.45478,32)</title></rect><rect x="378" y="199.186" width="6" height="0.814249" stroke="black" stroke-width="1" fill="blue" tooltip="enable"><title>(2.49438,24)</title></rect><rect x="384" y="199.288" width="6" height="0.712468" stroke="black" stroke-width="1" fill="blue" tooltip="enable"><title>(2.53397,21)</title></rect><rect x="390" y="199.186" width="6" height="0.814249" stroke="black" stroke-width="1" fill="blue" tooltip="enable"><title>(2.57356,24)</title></rect><rect x="396" y="199.321" width="6" height="0.678541" stroke="black" stroke-width="1" fill="blue" tooltip="enable"><title>(2.61316,20)</title></rect><rect x="402" y="199.491" width="6" height="0.508906" stroke="black" stroke-width="1" fill="blue" tooltip="enable"><title>(2.65275,15)</title></rect><rect x="408" y="199.457" width="6" height="0.542833" stroke="black" stroke-width="1" fill="blue" tooltip="enable"><title>(2.69234,16)</title></rect><rect x="414" y="199.491" width="6" height="0.508906" stroke="black" stroke-width="1" fill="blue" tooltip="enable"><title>(2.73194,15)</title></rect><rect x="420" y="199.254" width="6" height="0.746395" stroke="black" stroke-width="1" fill="blue" tooltip="enable"><title>(2.77153,22)</title></rect><rect x="426" y="199.559" width="6" height="0.441052" stroke="black" stroke-width="1" fill="blue" tooltip="enable"><title>(2.81112,13)</title></rect><rect x="432" y="199.491" width="6" height="0.508906" stroke="black" stroke-width="1" fill="blue" tooltip="enable"><title>(2.85072,15)</title></rect><rect x="438" y="199.457" width="6" height="0.542833" stroke="black" stroke-width="1" fill="blue" tooltip="enable"><title>(2.89031,16)</title></rect><rect x="444" y="199.491" width="6" height="0.508906" stroke="black" stroke-width="1" fill="blue" tooltip="enable"><title>(2.9299,15)</title></rect><rect x="450" y="199.627" width="6" height="0.373198" stroke="black" stroke-width="1" fill="blue" tooltip="enable"><title>(2.9695,11)</title></rect><rect x="456" y="199.559" width="6" height="0.441052" stroke="black" stroke-width="1" fill="blue" tooltip="enable"><title>(3.00909,13)</title></rect><rect x="462" y="199.593" width="6" height="0.407125" stroke="black" stroke-width="1" fill="blue" tooltip="enable"><title>(3.04868,12)</title></rect><rect x="468" y="199.661" width="6" height="0.339271" stroke="black" stroke-width="1" fill="blue" tooltip="enable"><title>(3.08828,10)</title></rect><rect x="474" y="199.661" width="6" height="0.339271" stroke="black" stroke-width="1" fill="blue" tooltip="enable"><title>(3.12787,10)</title></rect><rect x="480" y="199.695" width="6" height="0.305344" stroke="black" stroke-width="1" fill="blue" tooltip="enable"><title>(3.16746,9)</title></rect><rect x="486" y="199.83" width="6" height="0.169635" stroke="black" stroke-width="1" fill="blue" tooltip="enable"><title>(3.20706,5)</title></rect><rect x="492" y="199.763" width="6" height="0.237489" stroke="black" stroke-width="1" fill="blue" tooltip="enable"><title>(3.24665,7)</title></rect><rect x="498" y="199.763" width="6" height="0.237489" stroke="black" stroke-width="1" fill="blue" tooltip="enable"><title>(3.28624,7)</title></rect><rect x="504" y="199.695" width="6" height="0.305344" stroke="black" stroke-width="1" fill="blue" tooltip="enable"><title>(3.32584,9)</title></rect><rect x="510" y="199.83" width="6" height="0.169635" stroke="black" stroke-width="1" fill="blue" tooltip="enable"><title>(3.36543,5)</title></rect><rect x="516" y="199.695" width="6" height="0.305344" stroke="black" stroke-width="1" fill="blue" tooltip="enable"><title>(3.40502,9)</title></rect><rect x="522" y="199.898" width="6" height="0.101781" stroke="black" stroke-width="1" fill="blue" tooltip="enable"><title>(3.44462,3)</title></rect><rect x="528" y="199.796" width="6" height="0.203562" stroke="black" stroke-width="1" fill="blue" tooltip="enable"><title>(3.48421,6)</title></rect><rect x="534" y="199.83" width="6" height="0.169635" stroke="black" stroke-width="1" fill="blue" tooltip="enable"><title>(3.5238,5)</title></rect><rect x="540" y="199.763" width="6" height="0.237489" stroke="black" stroke-width="1" fill="blue" tooltip="enable"><title>(3.5634,7)</title></rect><rect x="546" y="199.898" width="6" height="0.101781" stroke="black" stroke-width="1" fill="blue" tooltip="enable"><title>(3.60299,3)</title></rect><rect x="552" y="199.796" width="6" height="0.203562" stroke="black" stroke-width="1" fill="blue" tooltip="enable"><title>(3.64258,6)</title></rect><rect x="558" y="199.898" width="6" height="0.101781" stroke="black" stroke-width="1" fill="blue" tooltip="enable"><title>(3.68218,3)</title></rect><rect x="564" y="199.932" width="6" height="0.0678541" stroke="black" stroke-width="1" fill="blue" tooltip="enable"><title>(3.72177,2)</title></rect><rect x="570" y="199.966" width="6" height="0.0339271" stroke="black" stroke-width="1" fill="blue" tooltip="enable"><title>(3.76136,1)</title></rect><rect x="576" y="199.864" width="6" height="0.135708" stroke="black" stroke-width="1" fill="blue" tooltip="enable"><title>(3.80096,4)</title></rect><rect x="582" y="199.932" width="6" height="0.0678541" stroke="black" stroke-width="1" fill="blue" tooltip="enable"><title>(3.84055,2)</title></rect><rect x="588" y="200" width="6" height="0" stroke="black" stroke-width="1" fill="blue" tooltip="enable"><title>(3.88014,0)</title></rect><rect x="594" y="199.932" width="6" height="0.0678541" stroke="black" stroke-width="1" fill="blue" tooltip="enable"><title>(3.91974,2)</title></rect><text x="30" y="240" font-size="20" fill="black">0</text>
<text x="600" y="240" font-size="20" fill="black">3.95933</text>
<polyline points="0,220,600,220" stroke="black" stroke-width="1" fill="none"/>
<text x="720" y="20" font-size="20" fill="black">5895</text>
<text x="720" y="200" font-size="20" fill="black">0</text>
<polyline points="660,0,660,200" stroke="black" stroke-width="1" fill="none"/>
</svg>