<?xml version="1.0" standalone="yes"?>
<!-- SVG graphic -->
<svg xmlns='http://www.w3.org/2000/svg' xmlns:xlink='http://www.w3.org/1999/xlink'
 version="1.1">
<rect x="0" y="0" width="6" height="200" stroke="black" stroke-width="1" fill="blue" tooltip="enable"><title>(0,3485)</title></rect><rect x="6" y="59.8565" width="6" height="140.143" stroke="black" stroke-width="1" fill="blue" tooltip="enable"><title>(0.0317589,2442)</title></rect><rect x="12" y="90.2152" width="6" height="109.785" stroke="black" stroke-width="1" fill="blue" tooltip="enable"><title>(0.0635179,1913)</title></rect><rect x="18" y="107.604" width="6" height="92.396" stroke="black" stroke-width="1" fill="blue" tooltip="enable"><title>(0.0952768,1610)</title></rect><rect x="24" y="118.68" width="6" height="81.3199" stroke="black" stroke-width="1" fill="blue" tooltip="enable"><title>(0.127036,1417)</title></rect><rect x="30" y="137.676" width="6" height="62.3242" stroke="black" stroke-width="1" fill="blue" tooltip="enable"><title>(0.158795,1086)</title></rect><rect x="36" y="144.62" width="6" height="55.3802" stroke="black" stroke-width="1" fill="blue" tooltip="enable"><title>(0.190554,965)</title></rect><rect x="42" y="153.802" width="6" height="46.198" stroke="black" stroke-width="1" fill="blue" tooltip="enable"><title>(0.222313,805)</title></rect><rect x="48" y="158.967" width="6" height="41.033" stroke="black" stroke-width="1" fill="blue" tooltip="enable"><title>(0.254072,715)</title></rect><rect x="54" y="166.255" width="6" height="33.7446" stroke="black" stroke-width="1" fill="blue" tooltip="enable"><title>(0.28583,588)</title></rect><rect x="60" y="169.412" width="6" height="30.5882" stroke="black" stroke-width="1" fill="blue" tooltip="enable"><title>(0.317589,533)</title></rect><rect x="66" y="173.372" width="6" height="26.6284" stroke="black" stroke-width="1" fill="blue" tooltip="enable"><title>(0.349348,464)</title></rect><rect x="72" y="176.7" width="6" height="23.2999" stroke="black" stroke-width="1" fill="blue" tooltip="enable"><title>(0.381107,406)</title></rect><rect x="78" y="181.463" width="6" height="18.5366" stroke="black" stroke-width="1" fill="blue" tooltip="enable"><title>(0.412866,323)</title></rect><rect x="84" y="182.209" width="6" height="17.7905" stroke="black" stroke-width="1" fill="blue" tooltip="enable"><title>(0.444625,310)</title></rect><rect x="90" y="183.874" width="6" height="16.1263" stroke="black" stroke-width="1" fill="blue" tooltip="enable"><title>(0.476384,281)</title></rect><rect x="96" y="187.891" width="6" height="12.109" stroke="black" stroke-width="1" fill="blue" tooltip="enable"><title>(0.508143,211)</title></rect><rect x="102" y="187.317" width="6" height="12.6829" stroke="black" stroke-width="1" fill="blue" tooltip="enable"><title>(0.539902,221)</title></rect><rect x="108" y="189.326" width="6" height="10.6743" stroke="black" stroke-width="1" fill="blue" tooltip="enable"><title>(0.571661,186)</title></rect><rect x="114" y="191.392" width="6" height="8.60832" stroke="black" stroke-width="1" fill="blue" tooltip="enable"><title>(0.60342,150)</title></rect><rect x="120" y="193.171" width="6" height="6.82927" stroke="black" stroke-width="1" fill="blue" tooltip="enable"><title>(0.635179,119)</title></rect><rect x="126" y="192.367" width="6" height="7.63271" stroke="black" stroke-width="1" fill="blue" tooltip="enable"><title>(0.666938,133)</title></rect><rect x="132" y="193.171" width="6" height="6.82927" stroke="black" stroke-width="1" fill="blue" tooltip="enable"><title>(0.698697,119)</title></rect><rect x="138" y="194.319" width="6" height="5.68149" stroke="black" stroke-width="1" fill="blue" tooltip="enable"><title>(0.730456,99)</title></rect><rect x="144" y="194.778" width="6" height="5.22238" stroke="black" stroke-width="1" fill="blue" tooltip="enable"><title>(0.762215,91)</title></rect><rect x="150" y="194.146" width="6" height="5.85366" stroke="black" stroke-width="1" fill="blue" tooltip="enable"><title>(0.793974,102)</title></rect><rect x="156" y="196.557" width="6" height="3.44333" stroke="black" stroke-width="1" fill="blue" tooltip="enable"><title>(0.825732,60)</title></rect><rect x="162" y="196.499" width="6" height="3.50072" stroke="black" stroke-width="1" fill="blue" tooltip="enable"><title>(0.857491,61)</title></rect><rect x="168" y="197.073" width="6" height="2.92683" stroke="black" stroke-width="1" fill="blue" tooltip="enable"><title>(0.88925,51)</title></rect><rect x="174" y="197.532" width="6" height="2.46772" stroke="black" stroke-width="1" fill="blue" tooltip="enable"><title>(0.921009,43)</title></rect><rect x="180" y="197.647" width="6" height="2.35294" stroke="black" stroke-width="1" fill="blue" tooltip="enable"><title>(0.952768,41)</title></rect><rect x="186" y="197.532" width="6" height="2.46772" stroke="black" stroke-width="1" fill="blue" tooltip="enable"><title>(0.984527,43)</title></rect><rect x="192" y="198.221" width="6" height="1.77905" stroke="black" stroke-width="1" fill="blue" tooltip="enable"><title>(1.01629,31)</title></rect><rect x="198" y="198.278" width="6" height="1.72166" stroke="black" stroke-width="1" fill="blue" tooltip="enable"><title>(1.04805,30)</title></rect><rect x="204" y="198.221" width="6" height="1.77905" stroke="black" stroke-width="1" fill="blue" tooltip="enable"><title>(1.0798,31)</title></rect><rect x="210" y="197.934" width="6" height="2.066" stroke="black" stroke-width="1" fill="blue" tooltip="enable"><title>(1.11156,36)</title></rect><rect x="216" y="198.393" width="6" height="1.60689" stroke="black" stroke-width="1" fill="blue" tooltip="enable"><title>(1.14332,28)</title></rect><rect x="222" y="198.737" width="6" height="1.26255" stroke="black" stroke-width="1" fill="blue" tooltip="enable"><title>(1.17508,22)</title></rect><rect x="228" y="198.795" width="6" height="1.20517" stroke="black" stroke-width="1" fill="blue" tooltip="enable"><title>(1.20684,21)</title></rect><rect x="234" y="198.565" width="6" height="1.43472" stroke="black" stroke-width="1" fill="blue" tooltip="enable"><title>(1.2386,25)</title></rect><rect x="240" y="198.623" width="6" height="1.37733" stroke="black" stroke-width="1" fill="blue" tooltip="enable"><title>(1.27036,24)</title></rect><rect x="246" y="199.139" width="6" height="0.860832" stroke="black" stroke-width="1" fill="blue" tooltip="enable"><title>(1.30212,15)</title></rect><rect x="252" y="199.082" width="6" height="0.918221" stroke="black" stroke-width="1" fill="blue" tooltip="enable"><title>(1.33388,16)</title></rect><rect x="258" y="199.082" width="6" height="0.918221" stroke="black" stroke-width="1" fill="blue" tooltip="enable"><title>(1.36563,16)</title></rect><rect x="264" y="199.426" width="6" height="0.573888" stroke="black" stroke-width="1" fill="blue" tooltip="enable"><title>(1.39739,10)</title></rect><rect x="270" y="199.254" width="6" height="0.746055" stroke="black" stroke-width="1" fill="blue" tooltip="enable"><title>(1.42915,13)</title></rect><rect x="276" y="199.254" width="6" height="0.746055" stroke="black" stroke-width="1" fill="blue" tooltip="enable"><title>(1.46091,13)</title></rect><rect x="282" y="199.484" width="6" height="0.516499" stroke="black" stroke-width="1" fill="blue" tooltip="enable"><title>(1.49267,9)</title></rect><rect x="288" y="199.598" width="6" height="0.401722" stroke="black" stroke-width="1" fill="blue" tooltip="enable"><title>(1.52443,7)</title></rect><rect x="294" y="199.426" width="6" height="0.573888" stroke="black" stroke-width="1" fill="blue" tooltip="enable"><title>(1.55619,10)</title></rect><rect x="300" y="199.77" width="6" height="0.229555" stroke="black" stroke-width="1" fill="blue" tooltip="enable"><title>(1.58795,4)</title></rect><rect x="306" y="199.77" width="6" height="0.229555" stroke="black" stroke-width="1" fill="blue" tooltip="enable"><title>(1.61971,4)</title></rect><rect x="312" y="199.713" width="6" height="0.286944" stroke="black" stroke-width="1" fill="blue" tooltip="enable"><title>(1.65146,5)</title></rect><rect x="318" y="199.656" width="6" height="0.344333" stroke="black" stroke-width="1" fill="blue" tooltip="enable"><title>(1.68322,6)</title></rect><rect x="324" y="199.656" width="6" height="0.344333" stroke="black" stroke-width="1" fill="blue" tooltip="enable"><title>(1.71498,6)</title></rect><rect x="330" y="199.77" width="6" height="0.229555" stroke="black" stroke-width="1" fill="blue" tooltip="enable"><title>(1.74674,4)</title></rect><rect x="336" y="199.656" width="6" height="0.344333" stroke="black" stroke-width="1" fill="blue" tooltip="enable"><title>(1.7785,6)</title></rect><rect x="342" y="199.713" width="6" height="0.286944" stroke="black" stroke-width="1" fill="blue" tooltip="enable"><title>(1.81026,5)</title></rect><rect x="348" y="199.943" width="6" height="0.0573888" stroke="black" stroke-width="1" fill="blue" tooltip="enable"><title>(1.84202,1)</title></rect><rect x="354" y="199.828" width="6" height="0.172166" stroke="black" stroke-width="1" fill="blue" tooltip="enable"><title>(1.87378,3)</title></rect><rect x="360" y="199.77" width="6" height="0.229555" stroke="black" stroke-width="1" fill="blue" tooltip="enable"><title>(1.90554,4)</title></rect><rect x="366" y="199.943" width="6" height="0.0573888" stroke="black" stroke-width="1" fill="blue" tooltip="enable"><title>(1.9373,1)</title></rect><rect x="372" y="199.885" width="6" height="0.114778" stroke="black" stroke-width="1" fill="blue" tooltip="enable"><title>(1.96905,2)</title></rect><rect x="378" y="199.77" width="6" height="0.229555" stroke="black" stroke-width="1" fill="blue" tooltip="enable"><title>(2.00081,4)</title></rect><rect x="384" y="199.656" width="6" height="0.344333" stroke="black" stroke-width="1" fill="blue" tooltip="enable"><title>(2.03257,6)</title></rect><rect x="390" y="199.885" width="6" height="0.114778" stroke="black" stroke-width="1" fill="blue" tooltip="enable"><title>(2.06433,2)</title></rect><rect x="396" y="199.77" width="6" height="0.229555" stroke="black" stroke-width="1" fill="blue" tooltip="enable"><title>(2.09609,4)</title></rect><rect x="402" y="199.713" width="6" height="0.286944" stroke="black" stroke-width="1" fill="blue" tooltip="enable"><title>(2.12785,5)</title></rect><rect x="408" y="199.77" width="6" height="0.229555" stroke="black" stroke-width="1" fill="blue" tooltip="enable"><title>(2.15961,4)</title></rect><rect x="414" y="199.943" width="6" height="0.0573888" stroke="black" stroke-width="1" fill="blue" tooltip="enable"><title>(2.19137,1)</title></rect><rect x="420" y="199.77" width="6" height="0.229555" stroke="black" stroke-width="1" fill="blue" tooltip="enable"><title>(2.22313,4)</title></rect><rect x="426" y="199.943" width="6" height="0.0573888" stroke="black" stroke-width="1" fill="blue" tooltip="enable"><title>(2.25488,1)</title></rect><rect x="432" y="199.943" width="6" height="0.0573888" stroke="black" stroke-width="1" fill="blue" tooltip="enable"><title>(2.28664,1)</title></rect><rect x="438" y="199.828" width="6" height="0.172166" stroke="black" stroke-width="1" fill="blue" tooltip="enable"><title>(2.3184,3)</title></rect><rect x="444" y="199.828" width="6" height="0.172166" stroke="black" stroke-width="1" fill="blue" tooltip="enable"><title>(2.35016,3)</title></rect><rect x="450" y="199.943" width="6" height="0.0573888" stroke="black" stroke-width="1" fill="blue" tooltip="enable"><title>(2.38192,1)</title></rect><rect x="456" y="200" width="6" height="0" stroke="black" stroke-width="1" fill="blue" tooltip="enable"><title>(2.41368,0)</title></rect><rect x="462" y="199.885" width="6" height="0.114778" stroke="black" stroke-width="1" fill="blue" tooltip="enable"><title>(2.44544,2)</title></rect><rect x="468" y="199.77" width="6" height="0.229555" stroke="black" stroke-width="1" fill="blue" tooltip="enable"><title>(2.4772,4)</title></rect><rect x="474" y="200" width="6" height="0" stroke="black" stroke-width="1" fill="blue" tooltip="enable"><title>(2.50896,0)</title></rect><rect x="480" y="200" width="6" height="0" stroke="black" stroke-width="1" fill="blue" tooltip="enable"><title>(2.54072,0)</title></rect><rect x="486" y="200" width="6" height="0" stroke="black" stroke-width="1" fill="blue" tooltip="enable"><title>(2.57247,0)</title></rect><rect x="492" y="200" width="6" height="0" stroke="black" stroke-width="1" fill="blue" tooltip="enable"><title>(2.60423,0)</title></rect><rect x="498" y="199.943" width="6" height="0.0573888" stroke="black" stroke-width="1" fill="blue" tooltip="enable"><title>(2.63599,1)</title></rect><rect x="504" y="199.885" width="6" height="0.114778" stroke="black" stroke-width="1" fill="blue" tooltip="enable"><title>(2.66775,2)</title></rect><rect x="510" y="199.943" width="6" height="0.0573888" stroke="black" stroke-width="1" fill="blue" tooltip="enable"><title>(2.69951,1)</title></rect><rect x="516" y="199.885" width="6" height="0.114778" stroke="black" stroke-width="1" fill="blue" tooltip="enable"><title>(2.73127,2)</title></rect><rect x="522" y="199.943" width="6" height="0.0573888" stroke="black" stroke-width="1" fill="blue" tooltip="enable"><title>(2.76303,1)</title></rect><rect x="528" y="199.885" width="6" height="0.114778" stroke="black" stroke-width="1" fill="blue" tooltip="enable"><title>(2.79479,2)</title></rect><rect x="534" y="199.885" width="6" height="0.114778" stroke="black" stroke-width="1" fill="blue" tooltip="enable"><title>(2.82655,2)</title></rect><rect x="540" y="199.943" width="6" height="0.0573888" stroke="black" stroke-width="1" fill="blue" tooltip="enable"><title>(2.8583,1)</title></rect><rect x="546" y="200" width="6" height="0" stroke="black" stroke-width="1" fill="blue" tooltip="enable"><title>(2.89006,0)</title></rect><rect x="552" y="200" width="6" height="0" stroke="black" stroke-width="1" fill="blue" tooltip="enable"><title>(2.92182,0)</title></rect><rect x="558" y="200" width="6" height="0" stroke="black" stroke-width="1" fill="blue" tooltip="enable"><title>(2.95358,0)</title></rect><rect x="564" y="200" width="6" height="0" stroke="black" stroke-width="1" fill="blue" tooltip="enable"><title>(2.98534,0)</title></rect><rect x="570" y="200" width="6" height="0" stroke="black" stroke-width="1" fill="blue" tooltip="enable"><title>(3.0171,0)</title></rect><rect x="576" y="200" width="6" height="0" stroke="black" stroke-width="1" fill="blue" tooltip="enable"><title>(3.04886,0)</title></rect><rect x="582" y="200" width="6" height="0" stroke="black" stroke-width="1" fill="blue" tooltip="enable"><title>(3.08062,0)</title></rect><rect x="588" y="199.943" width="6" height="0.0573888" stroke="black" stroke-width="1" fill="blue" tooltip="enable"><title>(3.11238,1)</title></rect><rect x="594" y="199.943" width="6" height="0.0573888" stroke="black" stroke-width="1" fill="blue" tooltip="enable"><title>(3.14413,1)</title></rect><text x="30" y="240" font-size="20" fill="black">0</text>
<text x="600" y="240" font-size="20" fill="black">3.17589</text>
<polyline points="0,220,600,220" stroke="black" stroke-width="1" fill="none"/>
<text x="720" y="20" font-size="20" fill="black">3485</text>
<text x="720" y="200" font-size="20" fill="black">0</text>
<polyline points="660,0,660,200" stroke="black" stroke-width="1" fill="none"/>
</svg>