<?xml version="1.0" standalone="yes"?>
<!-- SVG graphic -->
<svg xmlns='http://www.w3.org/2000/svg' xmlns:xlink='http://www.w3.org/1999/xlink'
 version="1.1">
<rect x="0" y="0" width="6" height="200" stroke="black" stroke-width="1" fill="blue" tooltip="enable"><title>(0,4077)</title></rect><rect x="6" y="46.3086" width="6" height="153.691" stroke="black" stroke-width="1" fill="blue" tooltip="enable"><title>(0.0383402,3133)</title></rect><rect x="12" y="60.6819" width="6" height="139.318" stroke="black" stroke-width="1" fill="blue" tooltip="enable"><title>(0.0766805,2840)</title></rect><rect x="18" y="81.4324" width="6" height="118.568" stroke="black" stroke-width="1" fill="blue" tooltip="enable"><title>(0.115021,2417)</title></rect><rect x="24" y="97.768" width="6" height="102.232" stroke="black" stroke-width="1" fill="blue" tooltip="enable"><title>(0.153361,2084)</title></rect><rect x="30" y="105.47" width="6" height="94.5303" stroke="black" stroke-width="1" fill="blue" tooltip="enable"><title>(0.191701,1927)</title></rect><rect x="36" y="118.077" width="6" height="81.923" stroke="black" stroke-width="1" fill="blue" tooltip="enable"><title>(0.230041,1670)</title></rect><rect x="42" y="125.288" width="6" height="74.7118" stroke="black" stroke-width="1" fill="blue" tooltip="enable"><title>(0.268382,1523)</title></rect><rect x="48" y="136.669" width="6" height="63.3309" stroke="black" stroke-width="1" fill="blue" tooltip="enable"><title>(0.306722,1291)</title></rect><rect x="54" y="142.507" width="6" height="57.4933" stroke="black" stroke-width="1" fill="blue" tooltip="enable"><title>(0.345062,1172)</title></rect><rect x="60" y="152.024" width="6" height="47.9765" stroke="black" stroke-width="1" fill="blue" tooltip="enable"><title>(0.383402,978)</title></rect><rect x="66" y="154.918" width="6" height="45.0822" stroke="black" stroke-width="1" fill="blue" tooltip="enable"><title>(0.421743,919)</title></rect><rect x="72" y="161.344" width="6" height="38.6559" stroke="black" stroke-width="1" fill="blue" tooltip="enable"><title>(0.460083,788)</title></rect><rect x="78" y="164.14" width="6" height="35.8597" stroke="black" stroke-width="1" fill="blue" tooltip="enable"><title>(0.498423,731)</title></rect><rect x="84" y="166.201" width="6" height="33.7994" stroke="black" stroke-width="1" fill="blue" tooltip="enable"><title>(0.536763,689)</title></rect><rect x="90" y="172.136" width="6" height="27.8636" stroke="black" stroke-width="1" fill="blue" tooltip="enable"><title>(0.575104,568)</title></rect><rect x="96" y="174.982" width="6" height="25.0184" stroke="black" stroke-width="1" fill="blue" tooltip="enable"><title>(0.613444,510)</title></rect><rect x="102" y="176.846" width="6" height="23.1543" stroke="black" stroke-width="1" fill="blue" tooltip="enable"><title>(0.651784,472)</title></rect><rect x="108" y="177.336" width="6" height="22.6637" stroke="black" stroke-width="1" fill="blue" tooltip="enable"><title>(0.690124,462)</title></rect><rect x="114" y="180.623" width="6" height="19.377" stroke="black" stroke-width="1" fill="blue" tooltip="enable"><title>(0.728464,395)</title></rect><rect x="120" y="182.242" width="6" height="17.7582" stroke="black" stroke-width="1" fill="blue" tooltip="enable"><title>(0.766805,362)</title></rect><rect x="126" y="185.038" width="6" height="14.962" stroke="black" stroke-width="1" fill="blue" tooltip="enable"><title>(0.805145,305)</title></rect><rect x="132" y="187.049" width="6" height="12.9507" stroke="black" stroke-width="1" fill="blue" tooltip="enable"><title>(0.843485,264)</title></rect><rect x="138" y="187.147" width="6" height="12.8526" stroke="black" stroke-width="1" fill="blue" tooltip="enable"><title>(0.881825,262)</title></rect><rect x="144" y="190.336" width="6" height="9.66397" stroke="black" stroke-width="1" fill="blue" tooltip="enable"><title>(0.920166,197)</title></rect><rect x="150" y="191.023" width="6" height="8.97719" stroke="black" stroke-width="1" fill="blue" tooltip="enable"><title>(0.958506,183)</title></rect><rect x="156" y="190.827" width="6" height="9.17341" stroke="black" stroke-width="1" fill="blue" tooltip="enable"><title>(0.996846,187)</title></rect><rect x="162" y="191.906" width="6" height="8.09419" stroke="black" stroke-width="1" fill="blue" tooltip="enable"><title>(1.03519,165)</title></rect><rect x="168" y="192.396" width="6" height="7.60363" stroke="black" stroke-width="1" fill="blue" tooltip="enable"><title>(1.07353,155)</title></rect><rect x="174" y="193.132" width="6" height="6.86779" stroke="black" stroke-width="1" fill="blue" tooltip="enable"><title>(1.11187,140)</title></rect><rect x="180" y="193.181" width="6" height="6.81874" stroke="black" stroke-width="1" fill="blue" tooltip="enable"><title>(1.15021,139)</title></rect><rect x="186" y="195.34" width="6" height="4.66029" stroke="black" stroke-width="1" fill="blue" tooltip="enable"><title>(1.18855,95)</title></rect><rect x="192" y="194.751" width="6" height="5.24896" stroke="black" stroke-width="1" fill="blue" tooltip="enable"><title>(1.22689,107)</title></rect><rect x="198" y="194.555" width="6" height="5.44518" stroke="black" stroke-width="1" fill="blue" tooltip="enable"><title>(1.26523,111)</title></rect><rect x="204" y="195.683" width="6" height="4.3169" stroke="black" stroke-width="1" fill="blue" tooltip="enable"><title>(1.30357,88)</title></rect><rect x="210" y="195.536" width="6" height="4.46407" stroke="black" stroke-width="1" fill="blue" tooltip="enable"><title>(1.34191,91)</title></rect><rect x="216" y="195.781" width="6" height="4.21879" stroke="black" stroke-width="1" fill="blue" tooltip="enable"><title>(1.38025,86)</title></rect><rect x="222" y="195.732" width="6" height="4.26784" stroke="black" stroke-width="1" fill="blue" tooltip="enable"><title>(1.41859,87)</title></rect><rect x="228" y="197.351" width="6" height="2.64901" stroke="black" stroke-width="1" fill="blue" tooltip="enable"><title>(1.45693,54)</title></rect><rect x="234" y="197.4" width="6" height="2.59995" stroke="black" stroke-width="1" fill="blue" tooltip="enable"><title>(1.49527,53)</title></rect><rect x="240" y="196.909" width="6" height="3.09051" stroke="black" stroke-width="1" fill="blue" tooltip="enable"><title>(1.53361,63)</title></rect><rect x="246" y="197.792" width="6" height="2.20751" stroke="black" stroke-width="1" fill="blue" tooltip="enable"><title>(1.57195,45)</title></rect><rect x="252" y="198.136" width="6" height="1.86412" stroke="black" stroke-width="1" fill="blue" tooltip="enable"><title>(1.61029,38)</title></rect><rect x="258" y="198.234" width="6" height="1.766" stroke="black" stroke-width="1" fill="blue" tooltip="enable"><title>(1.64863,36)</title></rect><rect x="264" y="196.959" width="6" height="3.04145" stroke="black" stroke-width="1" fill="blue" tooltip="enable"><title>(1.68697,62)</title></rect><rect x="270" y="198.332" width="6" height="1.66789" stroke="black" stroke-width="1" fill="blue" tooltip="enable"><title>(1.72531,34)</title></rect><rect x="276" y="197.743" width="6" height="2.25656" stroke="black" stroke-width="1" fill="blue" tooltip="enable"><title>(1.76365,46)</title></rect><rect x="282" y="198.725" width="6" height="1.27545" stroke="black" stroke-width="1" fill="blue" tooltip="enable"><title>(1.80199,26)</title></rect><rect x="288" y="198.283" width="6" height="1.71695" stroke="black" stroke-width="1" fill="blue" tooltip="enable"><title>(1.84033,35)</title></rect><rect x="294" y="198.626" width="6" height="1.37356" stroke="black" stroke-width="1" fill="blue" tooltip="enable"><title>(1.87867,28)</title></rect><rect x="300" y="198.43" width="6" height="1.56978" stroke="black" stroke-width="1" fill="blue" tooltip="enable"><title>(1.91701,32)</title></rect><rect x="306" y="198.283" width="6" height="1.71695" stroke="black" stroke-width="1" fill="blue" tooltip="enable"><title>(1.95535,35)</title></rect><rect x="312" y="198.381" width="6" height="1.61884" stroke="black" stroke-width="1" fill="blue" tooltip="enable"><title>(1.99369,33)</title></rect><rect x="318" y="199.117" width="6" height="0.883002" stroke="black" stroke-width="1" fill="blue" tooltip="enable"><title>(2.03203,18)</title></rect><rect x="324" y="198.479" width="6" height="1.52073" stroke="black" stroke-width="1" fill="blue" tooltip="enable"><title>(2.07037,31)</title></rect><rect x="330" y="199.117" width="6" height="0.883002" stroke="black" stroke-width="1" fill="blue" tooltip="enable"><title>(2.10871,18)</title></rect><rect x="336" y="199.068" width="6" height="0.932058" stroke="black" stroke-width="1" fill="blue" tooltip="enable"><title>(2.14705,19)</title></rect><rect x="342" y="199.068" width="6" height="0.932058" stroke="black" stroke-width="1" fill="blue" tooltip="enable"><title>(2.18539,19)</title></rect><rect x="348" y="199.117" width="6" height="0.883002" stroke="black" stroke-width="1" fill="blue" tooltip="enable"><title>(2.22373,18)</title></rect><rect x="354" y="199.215" width="6" height="0.784891" stroke="black" stroke-width="1" fill="blue" tooltip="enable"><title>(2.26207,16)</title></rect><rect x="360" y="199.166" width="6" height="0.833947" stroke="black" stroke-width="1" fill="blue" tooltip="enable"><title>(2.30041,17)</title></rect><rect x="366" y="199.166" width="6" height="0.833947" stroke="black" stroke-width="1" fill="blue" tooltip="enable"><title>(2.33875,17)</title></rect><rect x="372" y="199.509" width="6" height="0.490557" stroke="black" stroke-width="1" fill="blue" tooltip="enable"><title>(2.37709,10)</title></rect><rect x="378" y="199.559" width="6" height="0.441501" stroke="black" stroke-width="1" fill="blue" tooltip="enable"><title>(2.41543,9)</title></rect><rect x="384" y="199.215" width="6" height="0.784891" stroke="black" stroke-width="1" fill="blue" tooltip="enable"><title>(2.45378,16)</title></rect><rect x="390" y="199.509" width="6" height="0.490557" stroke="black" stroke-width="1" fill="blue" tooltip="enable"><title>(2.49212,10)</title></rect><rect x="396" y="199.215" width="6" height="0.784891" stroke="black" stroke-width="1" fill="blue" tooltip="enable"><title>(2.53046,16)</title></rect><rect x="402" y="199.509" width="6" height="0.490557" stroke="black" stroke-width="1" fill="blue" tooltip="enable"><title>(2.5688,10)</title></rect><rect x="408" y="199.804" width="6" height="0.196223" stroke="black" stroke-width="1" fill="blue" tooltip="enable"><title>(2.60714,4)</title></rect><rect x="414" y="199.657" width="6" height="0.34339" stroke="black" stroke-width="1" fill="blue" tooltip="enable"><title>(2.64548,7)</title></rect><rect x="420" y="199.411" width="6" height="0.588668" stroke="black" stroke-width="1" fill="blue" tooltip="enable"><title>(2.68382,12)</title></rect><rect x="426" y="199.509" width="6" height="0.490557" stroke="black" stroke-width="1" fill="blue" tooltip="enable"><title>(2.72216,10)</title></rect><rect x="432" y="199.755" width="6" height="0.245278" stroke="black" stroke-width="1" fill="blue" tooltip="enable"><title>(2.7605,5)</title></rect><rect x="438" y="199.755" width="6" height="0.245278" stroke="black" stroke-width="1" fill="blue" tooltip="enable"><title>(2.79884,5)</title></rect><rect x="444" y="199.46" width="6" height="0.539612" stroke="black" stroke-width="1" fill="blue" tooltip="enable"><title>(2.83718,11)</title></rect><rect x="450" y="199.804" width="6" height="0.196223" stroke="black" stroke-width="1" fill="blue" tooltip="enable"><title>(2.87552,4)</title></rect><rect x="456" y="199.853" width="6" height="0.147167" stroke="black" stroke-width="1" fill="blue" tooltip="enable"><title>(2.91386,3)</title></rect><rect x="462" y="199.706" width="6" height="0.294334" stroke="black" stroke-width="1" fill="blue" tooltip="enable"><title>(2.9522,6)</title></rect><rect x="468" y="199.657" width="6" height="0.34339" stroke="black" stroke-width="1" fill="blue" tooltip="enable"><title>(2.99054,7)</title></rect><rect x="474" y="199.804" width="6" height="0.196223" stroke="black" stroke-width="1" fill="blue" tooltip="enable"><title>(3.02888,4)</title></rect><rect x="480" y="199.755" width="6" height="0.245278" stroke="black" stroke-width="1" fill="blue" tooltip="enable"><title>(3.06722,5)</title></rect><rect x="486" y="199.853" width="6" height="0.147167" stroke="black" stroke-width="1" fill="blue" tooltip="enable"><title>(3.10556,3)</title></rect><rect x="492" y="199.804" width="6" height="0.196223" stroke="black" stroke-width="1" fill="blue" tooltip="enable"><title>(3.1439,4)</title></rect><rect x="498" y="199.902" width="6" height="0.0981114" stroke="black" stroke-width="1" fill="blue" tooltip="enable"><title>(3.18224,2)</title></rect><rect x="504" y="199.804" width="6" height="0.196223" stroke="black" stroke-width="1" fill="blue" tooltip="enable"><title>(3.22058,4)</title></rect><rect x="510" y="199.951" width="6" height="0.0490557" stroke="black" stroke-width="1" fill="blue" tooltip="enable"><title>(3.25892,1)</title></rect><rect x="516" y="199.951" width="6" height="0.0490557" stroke="black" stroke-width="1" fill="blue" tooltip="enable"><title>(3.29726,1)</title></rect><rect x="522" y="199.951" width="6" height="0.0490557" stroke="black" stroke-width="1" fill="blue" tooltip="enable"><title>(3.3356,1)</title></rect><rect x="528" y="199.706" width="6" height="0.294334" stroke="black" stroke-width="1" fill="blue" tooltip="enable"><title>(3.37394,6)</title></rect><rect x="534" y="199.853" width="6" height="0.147167" stroke="black" stroke-width="1" fill="blue" tooltip="enable"><title>(3.41228,3)</title></rect><rect x="540" y="200" width="6" height="0" stroke="black" stroke-width="1" fill="blue" tooltip="enable"><title>(3.45062,0)</title></rect><rect x="546" y="199.902" width="6" height="0.0981114" stroke="black" stroke-width="1" fill="blue" tooltip="enable"><title>(3.48896,2)</title></rect><rect x="552" y="199.951" width="6" height="0.0490557" stroke="black" stroke-width="1" fill="blue" tooltip="enable"><title>(3.5273,1)</title></rect><rect x="558" y="199.902" width="6" height="0.0981114" stroke="black" stroke-width="1" fill="blue" tooltip="enable"><title>(3.56564,2)</title></rect><rect x="564" y="199.951" width="6" height="0.0490557" stroke="black" stroke-width="1" fill="blue" tooltip="enable"><title>(3.60398,1)</title></rect><rect x="570" y="199.951" width="6" height="0.0490557" stroke="black" stroke-width="1" fill="blue" tooltip="enable"><title>(3.64232,1)</title></rect><rect x="576" y="199.902" width="6" height="0.0981114" stroke="black" stroke-width="1" fill="blue" tooltip="enable"><title>(3.68066,2)</title></rect><rect x="582" y="200" width="6" height="0" stroke="black" stroke-width="1" fill="blue" tooltip="enable"><title>(3.719,0)</title></rect><rect x="588" y="200" width="6" height="0" stroke="black" stroke-width="1" fill="blue" tooltip="enable"><title>(3.75734,0)</title></rect><rect x="594" y="199.951" width="6" height="0.0490557" stroke="black" stroke-width="1" fill="blue" tooltip="enable"><title>(3.79568,1)</title></rect><text x="30" y="240" font-size="20" fill="black">0</text>
<text x="600" y="240" font-size="20" fill="black">3.83402</text>
<polyline points="0,220,600,220" stroke="black" stroke-width="1" fill="none"/>
<text x="720" y="20" font-size="20" fill="black">4077</text>
<text x="720" y="200" font-size="20" fill="black">0</text>
<polyline points="660,0,660,200" stroke="black" stroke-width="1" fill="none"/>
</svg>